name C:\Users\u0101727\Documents\MyRepositories\upper-imu-dc\Results\main_tracking\Case_43\FLX01_angularVelocities_bodyFrame.mot
datacolumns 4
datarows 129
range 5.01000000 6.29000000
endheader 
time	radius_imu_x	radius_imu_y	radius_imu_z	
          5.01000000	          1.31405243	         -0.28827348	          0.69906193	
          5.02000000	          1.27540048	         -0.26483612	          0.73697271	
          5.03000000	          1.23807931	         -0.24043499	          0.77639553	
          5.04000000	          1.20452643	         -0.21066323	          0.81589422	
          5.05000000	          1.17251295	         -0.17888066	          0.85457547	
          5.06000000	          1.14139445	         -0.14566962	          0.89268868	
          5.07000000	          1.11145798	         -0.11083332	          0.93016799	
          5.08000000	          1.08285796	         -0.07426163	          0.96695798	
          5.09000000	          1.05575131	         -0.03579695	          1.00301719	
          5.10000000	          1.03028835	          0.00466677	          1.03827917	
          5.11000000	          1.00660921	          0.04715954	          1.07265021	
          5.12000000	          0.98480905	          0.09163407	          1.10604123	
          5.13000000	          0.96494357	          0.13797115	          1.13836292	
          5.14000000	          0.94703896	          0.18597345	          1.16951538	
          5.15000000	          0.93109417	          0.23538432	          1.19939505	
          5.16000000	          0.91707720	          0.28590144	          1.22790076	
          5.17000000	          0.90492433	          0.33717903	          1.25493366	
          5.18000000	          0.89453840	          0.38883099	          1.28039666	
          5.19000000	          0.88578689	          0.44043415	          1.30419530	
          5.20000000	          0.87849968	          0.49153674	          1.32623821	
          5.21000000	          0.87246972	          0.54167251	          1.34643690	
          5.22000000	          0.86746294	          0.59038177	          1.36470831	
          5.23000000	          0.86323335	          0.63723711	          1.38097861	
          5.24000000	          0.85954044	          0.68186876	          1.39518791	
          5.25000000	          0.85616747	          0.72398527	          1.40729614	
          5.26000000	          0.85293690	          0.76338374	          1.41728501	
          5.27000000	          0.84972331	          0.79994654	          1.42515509	
          5.28000000	          0.84646440	          0.83362789	          1.43092366	
          5.29000000	          0.84316471	          0.86443687	          1.43462425	
          5.30000000	          0.83988973	          0.89242281	          1.43630608	
          5.31000000	          0.83675373	          0.91766532	          1.43603202	
          5.32000000	          0.83390245	          0.94026938	          1.43387409	
          5.33000000	          0.83149055	          0.96036493	          1.42990691	
          5.34000000	          0.82965884	          0.97810878	          1.42420011	
          5.35000000	          0.82851449	          0.99368799	          1.41681241	
          5.36000000	          0.82811517	          1.00732441	          1.40779041	
          5.37000000	          0.82846307	          1.01927609	          1.39717006	
          5.38000000	          0.82951395	          1.02983338	          1.38498007	
          5.39000000	          0.83119518	          1.03931454	          1.37124921	
          5.40000000	          0.83342293	          1.04806503	          1.35601664	
          5.41000000	          0.83611436	          1.05645857	          1.33934002	
          5.42000000	          0.83919424	          1.06489725	          1.32129811	
          5.43000000	          0.84259561	          1.07381058	          1.30198909	
          5.44000000	          0.84625632	          1.08365333	          1.28152787	
          5.45000000	          0.85011468	          1.09490105	          1.26004415	
          5.46000000	          0.85410736	          1.10804147	          1.23768040	
          5.47000000	          0.85816924	          1.12356109	          1.21458812	
          5.48000000	          0.86223356	          1.14192986	          1.19092327	
          5.49000000	          0.86622963	          1.16358769	          1.16684309	
          5.50000000	          0.87007971	          1.18893364	          1.14250431	
          5.51000000	          0.87369647	          1.21831776	          1.11806293	
          5.52000000	          0.87698241	          1.25203402	          1.09367464	
          5.53000000	          0.87983098	          1.29031297	          1.06949524	
          5.54000000	          0.88212729	          1.33331365	          1.04568012	
          5.55000000	          0.88374803	          1.38111357	          1.02238244	
          5.56000000	          0.88456406	          1.43369764	          0.99975242	
          5.57000000	          0.88445022	          1.49094543	          0.97793986	
          5.58000000	          0.88329672	          1.55261861	          0.95709575	
          5.59000000	          0.88100601	          1.61835149	          0.93736402	
          5.60000000	          0.87748281	          1.68764637	          0.91886912	
          5.61000000	          0.87264450	          1.75987448	          0.90171574	
          5.62000000	          0.86642495	          1.83428391	          0.88598610	
          5.63000000	          0.85874105	          1.91001876	          0.87171861	
          5.64000000	          0.84949026	          1.98614707	          0.85890529	
          5.65000000	          0.83859767	          2.06169482	          0.84751849	
          5.66000000	          0.82602476	          2.13569476	          0.83751743	
          5.67000000	          0.81177938	          2.20724160	          0.82885343	
          5.68000000	          0.79595441	          2.27554573	          0.82148779	
          5.69000000	          0.77868624	          2.33998426	          0.81536568	
          5.70000000	          0.76006698	          2.40013183	          0.81036827	
          5.71000000	          0.74018550	          2.45575332	          0.80634100	
          5.72000000	          0.71919348	          2.50676851	          0.80314595	
          5.73000000	          0.69717876	          2.55322072	          0.80060306	
          5.74000000	          0.67418424	          2.59520771	          0.79850896	
          5.75000000	          0.65036763	          2.63281287	          0.79674042	
          5.76000000	          0.62578642	          2.66613059	          0.79512601	
          5.77000000	          0.60046277	          2.69521109	          0.79347757	
          5.78000000	          0.57450707	          2.72004922	          0.79166559	
          5.79000000	          0.54800357	          2.74061607	          0.78955158	
          5.80000000	          0.52106924	          2.75686847	          0.78702711	
          5.81000000	          0.49386505	          2.76878066	          0.78402151	
          5.82000000	          0.46654567	          2.77637662	          0.78046335	
          5.83000000	          0.43921574	          2.77976108	          0.77624207	
          5.84000000	          0.41191680	          2.77915095	          0.77120461	
          5.85000000	          0.38467951	          2.77488787	          0.76521787	
          5.86000000	          0.35756668	          2.76743920	          0.75823356	
          5.87000000	          0.33064825	          2.75739438	          0.75028761	
          5.88000000	          0.30394863	          2.74544659	          0.74145147	
          5.89000000	          0.27742104	          2.73236012	          0.73179116	
          5.90000000	          0.25095639	          2.71893250	          0.72136051	
          5.91000000	          0.22440867	          2.70595922	          0.71021558	
          5.92000000	          0.19762287	          2.69419413	          0.69842831	
          5.93000000	          0.17045233	          2.68431490	          0.68609481	
          5.94000000	          0.14276747	          2.67690066	          0.67333987	
          5.95000000	          0.11447681	          2.67240948	          0.66030942	
          5.96000000	          0.08555082	          2.67116351	          0.64715674	
          5.97000000	          0.05602458	          2.67335403	          0.63403906	
          5.98000000	          0.02598884	          2.67905084	          0.62111131	
          5.99000000	         -0.00441898	          2.68820819	          0.60851197	
          6.00000000	         -0.03502386	          2.70067629	          0.59636255	
          6.01000000	         -0.06562424	          2.71621304	          0.58475819	
          6.02000000	         -0.09600794	          2.73449924	          0.57377409	
          6.03000000	         -0.12596528	          2.75515462	          0.56348011	
          6.04000000	         -0.15529499	          2.77774009	          0.55392736	
          6.05000000	         -0.18379075	          2.80175968	          0.54515150	
          6.06000000	         -0.21124949	          2.82667473	          0.53716425	
          6.07000000	         -0.23750514	          2.85193206	          0.52994516	
          6.08000000	         -0.26244273	          2.87699357	          0.52345584	
          6.09000000	         -0.28597067	          2.90134844	          0.51763956	
          6.10000000	         -0.30799229	          2.92452773	          0.51242739	
          6.11000000	         -0.32843292	          2.94613575	          0.50775077	
          6.12000000	         -0.34725616	          2.96585885	          0.50353340	
          6.13000000	         -0.36444020	          2.98345450	          0.49969227	
          6.14000000	         -0.37996748	          2.99875138	          0.49615938	
          6.15000000	         -0.39381130	          3.01163738	          0.49287288	
          6.16000000	         -0.40593068	          3.02203995	          0.48975959	
          6.17000000	         -0.41631001	          3.02992441	          0.48676825	
          6.18000000	         -0.42496090	          3.03525951	          0.48383836	
          6.19000000	         -0.43189777	          3.03798995	          0.48088826	
          6.20000000	         -0.43715536	          3.03807037	          0.47789605	
          6.21000000	         -0.44084025	          3.03548687	          0.47480233	
          6.22000000	         -0.44311946	          3.03029197	          0.47157485	
          6.23000000	         -0.44415657	          3.02260302	          0.46820276	
          6.24000000	         -0.44411008	          3.01259758	          0.46463843	
          6.25000000	         -0.44316669	          3.00053491	          0.46087489	
          6.26000000	         -0.44152822	          2.98672271	          0.45690926	
          6.27000000	         -0.43939666	          2.97149150	          0.45274712	
          6.28000000	         -0.43695427	          2.95517398	          0.44841298	
          6.29000000	         -0.43433785	          2.93808555	          0.44393304	
